{"title":"Savages 2012 TS XViD AC3 SeeN-CM8","uid":7469686,"size":1566128185,"categoryP":"video","categoryS":"movies","magnet":"?xt=urn:btih:991c77c3a7e9e77ef311eea7226e53fa4371660b&amp;dn=Savages+2012+TS+XViD+AC3+SeeN-CM8&amp;tr=udp%3A%2F%2Ftracker.openbittorrent.com%3A80&amp;tr=udp%3A%2F%2Fopen.demonii.com%3A1337&amp;tr=udp%3A%2F%2Ftracker.coppersurfer.tk%3A6969&amp;tr=udp%3A%2F%2Fexodus.desync.com%3A6969","seeders":10,"leechers":0,"uploader":"Hackulus","files":-1,"time":1343111745,"description":"Savages.2012.TS.XViD.AC3.SeeN-CM8\n\n\n\nThx SeeN\n\n\nSources:\nVideo: KiNGDOM - Thx\nAudio: Thx M8\n\nVideo: 688x320 @ 1500Kbps 2Pass\nAudio: English Line Audio AC3 2.0 @ 128Kbps\nSample: Yes, included\n\n &lt;a href=&quot;\nhttp://www.imdb.com/title/tt1615065/&quot; rel=&quot;nofollow&quot; target=&quot;_NEW&quot;&gt;\nhttp://www.imdb.com/title/tt1615065/&lt;/a&gt;\n\n\nComplete name                            : Savages.2012.TS.XViD.AC3.SeeN-CM8.avi\nFormat                                   : AVI\nFormat/Info                              : Audio Video Interleave\nFile size                                : 1.45 GiB\nDuration                                 : 2h 5mn\nOverall bit rate                         : 1 661 Kbps\nWriting library                          : VirtualDub build 34703/release\n\nVideo\nID                                       : 0\nFormat                                   : MPEG-4 Visual\nFormat profile                           : Advanced Simple@L5\nCodec ID                                 : XVID\nBit rate                                 : 1 521 Kbps\nWidth                                    : 688 pixels\nHeight                                   : 320 pixels\nFrame rate                               : 29.970 fps\nStream size                              : 1.33 GiB (92%)\n\nAudio\nID                                       : 1\nFormat                                   : AC-3\nFormat/Info                              : Audio Coding 3\nBit rate                                 : 128 Kbps\nChannel(s)                               : 2 channels\nChannel positions                        : Front: L R\nSampling rate                            : 48.0 KHz\nStream size                              : 115 MiB (8%)\n\n\nPlot:\nPot growers Ben and Chon face off against the Mexican\ndrug cartel who kidnapped their shared girlfriend.\n\n\nDirector: Oliver Stone\nWriters: Shane Salerno (screenplay), Don Winslow (screenplay)\nStars: Aaron Johnson, Taylor Kitsch and Blake Lively \n\n","torrent":{"xt":"urn:btih:991c77c3a7e9e77ef311eea7226e53fa4371660b","amp;dn":"Savages+2012+TS+XViD+AC3+SeeN-CM8","amp;tr":["udp%3A%2F%2Ftracker.openbittorrent.com%3A80","udp%3A%2F%2Fopen.demonii.com%3A1337","udp%3A%2F%2Ftracker.coppersurfer.tk%3A6969","udp%3A%2F%2Fexodus.desync.com%3A6969"],"infoHash":"991c77c3a7e9e77ef311eea7226e53fa4371660b","infoHashBuffer":{"type":"Buffer","data":[153,28,119,195,167,233,231,126,243,17,238,167,34,110,83,250,67,113,102,11]},"announce":[],"urlList":[]}}